<?xml version="1.0" encoding="UTF-8" standalone="no"?>
<!DOCTYPE svg PUBLIC "-//W3C//DTD SVG 1.1//EN" "http://www.w3.org/Graphics/SVG/1.1/DTD/svg11.dtd">
<svg xmlns="http://www.w3.org/2000/svg" version="1.1" viewBox="0.00 0.00 512.00 512.00">
<path fill="#000000" d="
  M 51.29 64.00
  L 460.71 64.00
  A 35.29 35.29 0.0 0 1 496.00 99.29
  L 496.00 412.71
  A 35.29 35.29 0.0 0 1 460.71 448.00
  L 51.29 448.00
  A 35.29 35.29 0.0 0 1 16.00 412.71
  L 16.00 99.29
  A 35.29 35.29 0.0 0 1 51.29 64.00
  Z
  M 316.90 128.32
  A 3.15 3.10 -31.5 0 0 315.52 128.00
  L 48.38 128.00
  Q 48.00 128.00 48.00 128.38
  L 48.00 412.75
  A 3.25 3.25 0.0 0 0 51.25 416.00
  L 460.75 416.00
  A 3.25 3.25 0.0 0 0 464.00 412.75
  L 464.00 144.98
  A 0.98 0.98 0.0 0 0 463.02 144.00
  Q 410.07 144.01 356.88 143.99
  Q 348.26 143.98 340.60 140.15
  Q 329.08 134.39 316.90 128.32
  Z"
/>
<path fill="#000000" d="
  M 144.93 263.59
  Q 140.13 258.61 135.01 253.71
  Q 130.36 249.25 129.08 245.72
  C 123.11 229.17 143.19 216.76 155.50 228.90
  Q 161.60 234.91 167.58 240.98
  Q 168.00 241.40 168.41 240.98
  Q 174.62 234.75 180.61 228.76
  C 184.59 224.79 190.36 223.13 195.75 224.50
  C 208.18 227.67 212.11 242.66 202.86 251.80
  Q 196.85 257.75 190.86 263.80
  A 0.25 0.25 0.0 0 0 190.86 264.15
  Q 195.19 268.71 200.90 274.18
  Q 205.76 278.83 207.00 282.47
  Q 209.32 289.23 206.08 295.50
  C 202.36 302.71 193.49 305.86 185.91 302.76
  Q 182.47 301.35 178.56 297.28
  Q 173.37 291.86 168.20 286.87
  A 0.27 0.26 -44.2 0 0 167.83 286.87
  Q 163.39 291.06 159.62 295.07
  Q 154.22 300.79 151.11 302.29
  C 140.85 307.26 128.48 300.45 128.07 288.62
  Q 127.82 281.59 132.82 276.57
  Q 138.98 270.38 144.92 264.48
  Q 145.37 264.04 144.93 263.59
  Z"
/>
<path fill="#000000" d="
  M 320.93 263.60
  Q 316.14 258.57 311.05 253.77
  Q 306.35 249.32 305.02 245.52
  C 299.26 229.06 319.12 216.90 331.45 228.87
  Q 337.07 234.32 343.54 240.97
  Q 343.98 241.42 344.43 240.97
  Q 350.41 234.97 356.56 228.81
  C 360.53 224.84 366.23 223.14 371.63 224.48
  C 384.38 227.62 388.06 242.79 378.67 252.02
  Q 372.84 257.74 366.86 263.80
  A 0.28 0.27 45.8 0 0 366.86 264.17
  Q 371.80 269.33 376.89 274.16
  C 383.34 280.28 386.31 287.52 382.03 295.57
  C 378.21 302.75 369.47 305.87 361.95 302.78
  Q 358.48 301.35 354.57 297.27
  Q 349.78 292.27 344.25 286.88
  A 0.30 0.29 -44.3 0 0 343.84 286.88
  Q 338.88 291.59 333.83 296.88
  Q 329.42 301.49 326.13 302.76
  C 309.24 309.30 296.63 288.76 309.15 276.22
  Q 314.86 270.51 320.92 264.48
  Q 321.36 264.05 320.93 263.60
  Z"
/>
<path fill="#000000" d="
  M 205.10 340.59
  Q 213.45 344.82 222.51 349.36
  A 3.35 3.35 0.0 0 0 225.51 349.36
  Q 232.59 345.82 239.65 342.30
  Q 251.92 336.19 264.52 339.37
  C 271.92 341.24 279.53 346.02 286.74 349.43
  A 3.00 2.99 -45.1 0 0 289.30 349.42
  Q 299.85 344.30 311.01 338.55
  Q 315.61 336.18 319.15 336.05
  C 329.98 335.66 338.60 345.68 335.29 356.52
  C 333.58 362.08 330.23 364.86 324.97 367.45
  Q 314.58 372.56 304.95 377.41
  Q 288.24 385.82 271.98 377.82
  Q 265.15 374.46 257.65 370.66
  A 3.69 3.68 44.2 0 0 254.24 370.70
  Q 247.51 374.31 240.22 377.75
  Q 223.49 385.67 208.05 377.86
  Q 197.90 372.73 188.25 368.06
  Q 181.81 364.95 179.63 362.13
  C 173.52 354.23 175.36 343.07 184.10 338.16
  C 192.04 333.70 198.01 337.01 205.10 340.59
  Z"
/>
</svg>
