<?xml version="1.0" encoding="UTF-8" standalone="no"?>
<!DOCTYPE svg PUBLIC "-//W3C//DTD SVG 1.1//EN" "http://www.w3.org/Graphics/SVG/1.1/DTD/svg11.dtd">
<svg xmlns="http://www.w3.org/2000/svg" version="1.1" viewBox="0.00 0.00 512.00 512.00">
<path fill="#ffffff" d="
  M 408.75 462.73
  C 423.56 458.40 433.98 445.62 433.99 430.02
  Q 434.01 253.25 434.01 81.93
  C 434.01 75.02 431.65 67.80 427.47 62.14
  Q 417.14 48.12 398.40 48.13
  Q 291.14 48.17 182.32 48.14
  C 166.77 48.13 153.55 57.40 148.93 72.20
  Q 147.41 77.09 147.41 85.05
  Q 147.42 104.63 147.57 124.41
  Q 147.66 136.49 146.15 140.48
  Q 142.65 149.80 133.93 154.18
  C 127.66 157.33 119.17 157.43 112.91 154.13
  Q 99.37 146.99 99.43 131.29
  Q 99.52 109.42 99.37 87.84
  Q 99.29 75.67 100.72 67.91
  Q 106.28 37.78 129.72 18.63
  Q 152.46 0.04 183.33 0.10
  Q 286.26 0.28 390.46 0.03
  Q 402.57 0.00 408.98 0.71
  C 445.43 4.73 474.69 32.19 480.84 68.78
  Q 482.05 75.96 482.05 84.79
  Q 481.97 255.69 482.02 427.26
  Q 482.02 435.48 481.08 441.65
  C 474.79 482.87 440.62 511.83 398.63 511.84
  Q 291.20 511.87 183.30 511.86
  Q 145.46 511.86 120.50 484.59
  Q 105.16 467.81 100.80 444.59
  Q 99.34 436.80 99.40 425.09
  Q 99.51 400.14 99.41 372.63
  Q 99.39 367.37 100.89 363.37
  C 108.84 342.07 139.06 342.22 146.28 364.08
  Q 147.67 368.29 147.57 378.77
  Q 147.31 406.03 147.54 431.21
  C 147.71 449.85 164.08 463.86 181.98 463.85
  Q 289.93 463.79 392.29 463.95
  Q 404.52 463.96 408.75 462.73
  Z"
/>
<path fill="#ffffff" d="
  M 289.32 280.01
  Q 178.64 279.93 58.99 280.06
  Q 50.06 280.07 46.08 278.66
  C 28.53 272.45 24.82 250.55 37.87 238.31
  Q 44.59 231.99 54.73 231.99
  Q 172.35 232.03 289.39 231.98
  Q 290.17 231.98 289.61 231.43
  Q 267.90 209.79 245.48 187.26
  C 237.24 179.00 236.13 165.26 242.85 156.13
  C 249.86 146.61 261.84 143.60 272.58 148.45
  Q 276.11 150.05 282.93 156.86
  Q 321.69 195.55 360.41 234.30
  Q 367.24 241.13 368.94 244.34
  C 374.14 254.11 372.24 265.82 364.40 273.66
  Q 321.13 316.97 278.52 359.54
  Q 275.39 362.67 269.89 364.58
  C 260.49 367.85 250.16 364.76 243.81 357.19
  C 237.45 349.60 236.28 338.17 241.56 329.76
  Q 243.77 326.23 249.09 320.96
  Q 270.55 299.75 289.55 280.57
  Q 290.10 280.02 289.32 280.01
  Z"
/>
</svg>
