<?xml version="1.0" encoding="UTF-8" standalone="no"?>
<!DOCTYPE svg PUBLIC "-//W3C//DTD SVG 1.1//EN" "http://www.w3.org/Graphics/SVG/1.1/DTD/svg11.dtd">
<svg xmlns="http://www.w3.org/2000/svg" version="1.1" viewBox="0.00 0.00 512.00 512.00">
<path fill="#000000" d="
  M 512.00 84.35
  L 512.00 89.31
  Q 510.57 111.15 495.25 126.51
  Q 476.40 145.41 457.56 164.23
  A 0.27 0.27 0.0 0 1 457.18 164.23
  L 347.98 55.04
  A 0.56 0.55 45.4 0 1 347.98 54.25
  Q 367.15 35.07 385.05 17.18
  Q 401.23 1.03 424.24 0.57
  Q 440.53 0.25 454.76 8.66
  Q 459.84 11.66 469.64 21.45
  Q 482.08 33.88 494.71 46.54
  Q 510.61 62.48 512.00 84.35
  Z"
/>
<path fill="#000000" d="
  M 12.39 512.00
  L 9.92 512.00
  Q 1.80 510.45 0.00 502.42
  L 0.00 499.25
  Q 15.84 436.12 31.50 372.99
  C 31.96 371.13 33.08 369.12 34.48 367.72
  Q 175.59 226.57 315.85 86.33
  A 0.47 0.47 0.0 0 1 316.51 86.33
  L 425.61 195.43
  A 0.54 0.53 -45.4 0 1 425.61 196.18
  Q 284.59 337.20 144.53 477.17
  Q 142.19 479.51 138.97 480.32
  Q 75.71 496.22 12.39 512.00
  Z"
/>
</svg>
