<?xml version="1.0" encoding="UTF-8" standalone="no"?>
<!DOCTYPE svg PUBLIC "-//W3C//DTD SVG 1.1//EN" "http://www.w3.org/Graphics/SVG/1.1/DTD/svg11.dtd">
<svg xmlns="http://www.w3.org/2000/svg" version="1.1" viewBox="0.00 0.00 512.00 512.00">
<path fill="#00991E" d="
  M 252.34 0.00
  L 261.83 0.00
  Q 325.26 1.51 378.92 31.10
  Q 423.18 55.49 454.10 93.40
  Q 509.47 161.26 512.00 250.30
  L 512.00 259.84
  Q 510.65 316.87 486.40 366.66
  C 457.21 426.59 406.64 472.98 344.17 496.39
  Q 305.27 510.97 261.66 512.00
  L 252.17 512.00
  Q 195.69 510.59 146.61 486.63
  C 86.12 457.10 38.76 405.31 15.55 342.24
  Q 1.03 302.80 0.00 259.67
  L 0.00 250.16
  Q 1.07 206.33 15.82 167.26
  C 39.30 105.06 85.62 54.69 145.34 25.60
  Q 195.23 1.31 252.34 0.00
  Z
  M 263.31 241.38
  C 270.97 248.91 271.58 260.61 263.90 268.27
  Q 218.93 313.09 170.25 361.91
  C 165.20 366.98 163.95 374.35 166.83 380.96
  Q 168.28 384.27 174.95 390.67
  Q 181.15 396.60 186.41 402.14
  Q 189.57 405.48 192.79 407.31
  C 199.39 411.06 207.73 409.35 213.04 404.03
  Q 277.79 339.07 346.96 270.07
  Q 350.32 266.72 352.05 263.71
  C 356.13 256.65 354.35 247.47 348.68 241.86
  Q 281.10 175.04 212.76 107.64
  C 205.73 100.70 195.15 101.07 188.29 108.06
  Q 181.21 115.28 174.16 122.12
  Q 168.49 127.61 166.91 131.07
  C 163.73 138.00 165.61 145.36 170.99 150.65
  Q 219.45 198.28 263.31 241.38
  Z"
/>
</svg>
